# AST/ASF file generated using VICON BodyLanguage
# -----------------------------------------------
:version 1.10
:name VICON
:units
  mass 1.0
  length 0.45
  angle deg
:documentation
   .ast/.asf automatically generated from VICON data using
   VICON BodyBuilder and BodyLanguage model FoxedUp or BRILLIANT.MOD
:root
   order TX TY TZ RX RY RZ
   axis XYZ
   position 0 0 0  
   orientation 0 0 0 
:bonedata
  begin
     id 1 
     name lhipjoint
     direction 0.577973 -0.728611 0.367523 
     length 2.48544 
     axis 0 0 0  XYZ
  end
  begin
     id 2 
     name lfemur
     direction 0.34202 -0.939693 0  
     length 7.1921  
     axis 0 0 20  XYZ
    dof rx ry rz
    limits (-160.0 20.0)
           (-70.0 70.0)
           (-60.0 70.0)
  end
  begin
     id 3 
     name ltibia
     direction 0.34202 -0.939693 0   
     length 7.71059   
     axis 0 0 20   XYZ
    dof rx
    limits (-10.0 170.0)
  end
  begin
     id 4 
     name lfoot
     direction 0.089538 -0.246004 0.965124   
     length 2.19909   
     axis -90 7.62852e-016 20   XYZ
    dof rx rz
    limits (-45.0 90.0)
           (-70.0 20.0)
  end
  begin
     id 5 
     name ltoes
     direction 1.53544e-011 -4.21829e-011 1   
     length 1.10116   
     axis -90 7.62852e-016 20   XYZ
    dof rx
    limits (-90.0 20.0)
  end
  begin
     id 6 
     name rhipjoint
     direction -0.554414 -0.743062 0.374812   
     length 2.4371  
     axis 0 0 0  XYZ 
  end
  begin
     id 7 
     name rfemur
     direction -0.34202 -0.939693 0   
     length 7.47254   
     axis 0 0 -20   XYZ
    dof rx ry rz
    limits (-160.0 20.0)
           (-70.0 70.0)
           (-70.0 60.0)
  end
  begin
     id 8 
     name rtibia
     direction -0.34202 -0.939693 0   
     length 7.65855   
     axis 0 0 -20   XYZ
    dof rx
    limits (-10.0 170.0)
 end
 begin
     id 9 
     name rfoot
     direction -0.133779 -0.367555 0.92033   
     length 2.43006  
     axis -90 -7.62852e-016 -20   XYZ
    dof rx rz
    limits (-45.0 90.0)
           (-20.0 70.0)
  end
  begin
     id 10 
     name rtoes
     direction -1.53563e-011 -4.21889e-011 1   
     length 1.19625   
     axis -90 -7.62852e-016 -20   XYZ
    dof rx
    limits (-90.0 20.0)
  end
  begin
     id 11 
     name lowerback
     direction 0.0249066 0.998043 -0.0573585   
     length 2.08485   
     axis 0 0 0   XYZ
    dof rx ry rz
    limits (-20.0 45.0)
           (-30.0 30.0)
           (-30.0 30.0)
  end
  begin
     id 12 
     name upperback
     direction 0.0237884 0.999673 0.00943178   
     length 2.08515   
     axis 0 0 0   XYZ
    dof rx ry rz
    limits (-20.0 45.0)
           (-30.0 30.0)
           (-30.0 30.0)
  end
  begin
     id 13 
     name thorax
     direction 0.0106671 0.999301 0.0358174   
     length 2.09037   
     axis 0 0 0   XYZ
    dof rx ry rz
    limits (-20.0 45.0)
           (-30.0 30.0)
           (-30.0 30.0)
  end
  begin
     id 14 
     name lowerneck
     direction -0.0580016 0.987052 0.149546   
     length 1.84454   
     axis 0 0 0   XYZ
    dof rx ry rz
    limits (-20.0 45.0)
           (-30.0 30.0)
           (-30.0 30.0)
  end
  begin
     id 15 
     name upperneck
     direction 0.079456 0.981963 -0.171567   
     length 1.88141   
     axis 0 0 0   XYZ
    dof rx ry rz
    limits (-20.0 45.0)
           (-30.0 30.0)
           (-30.0 30.0)
  end
  begin
     id 16
     name head
     direction 0.0262167 0.9967 -0.0768276  
     length 1.89541  
     axis 0 0 0   XYZ
    dof rx ry rz
    limits (-20.0 45.0)
           (-30.0 30.0)
           (-30.0 30.0)
  end
  begin
     id 17 
     name lclavicle
     direction 0.946135 0.322134 -0.0325326  
     length 3.949  
     axis 0 0 0   XYZ
    dof ry rz
    limits (-20.0 10.0)
           (0.0 20.0)
  end
  begin
     id 18 
     name lhumerus
     direction 1 -4.48964e-011 1.94005e-028   
     length 5.10995   
     axis 180 -30 -90   XYZ
    dof rx ry rz
    limits (-60.0 90.0)
           (-90.0 90.0)
           (-90.0 90.0)
  end
  begin
     id 19
     name lradius
     direction 1 -4.48976e-011 2.87852e-027   
     length 3.21207   
     axis 180 -30 -90   XYZ
    dof rx
    limits (-10.0 170.0)
  end
  begin
     id 20
     name lwrist
     direction 1 -4.48963e-011 1.9975e-027   
     length 1.60604   
     axis 2.96054e-016 90 90   XYZ
    dof ry
    limits (-180.0 0.0)
 end
  begin
     id 21 
     name lhand
     direction 1 -4.48919e-011 4.00227e-027   
     length 0.63349   
     axis -2.5488e-015 90 90   XYZ
    dof rx rz
    limits (-90.0 90.0)
           (-45.0 45.0)
  end
  begin
     id 22 
     name lfingers
     direction 1 -4.49037e-011 7.9652e-027   
     length 0.510736   
     axis -5.0975e-015 90 90   XYZ
    dof rx
    limits (0.0 90.0)
  end
  begin
     id 23
     name lthumb
     direction 0.707107 -6.34922e-011 0.707107   
     length 0.733318   
     axis -90 45 -4.48553e-014   XYZ
    dof rx rz
    limits (-45.0 45.0)
           (-45.0 45.0)
  end
  begin
     id 24 
     name rclavicle
     direction -0.940085 0.328911 -0.0897654   
     length 3.93848  
     axis 0 0 0   XYZ 
    dof ry rz
    limits (-10.0 20.0)
           (-20.0 0.0)
  end
  begin
     id 25 
     name rhumerus
     direction -1 -4.48958e-011 3.02044e-027  
     length 5.25109   
     axis 180 30 90   XYZ
    dof rx ry rz
    limits (-90.0 60.0)
           (-90.0 90.0)
           (-90.0 90.0)
  end
  begin
     id 26 
     name rradius
     direction -1 -4.4897e-011 9.78352e-028   
     length 3.28364   
     axis 180 30 90   XYZ
    dof rx
    limits (-10.0 170.0)
  end
  begin
     id 27 
     name rwrist
     direction -1 -4.48943e-011 1.99918e-027   
     length 1.64182   
     axis 2.96054e-016 -90 -90   XYZ
    dof ry
    limits (-180.0 0.0)
  end
  begin
     id 28
     name rhand
     direction -1 -4.49024e-011 3.98478e-027   
     length 0.599745   
     axis -2.5488e-015 -90 -90   XYZ
    dof rx rz
    limits (-90.0 90.0)
           (-45.0 45.0)
  end
  begin
     id 29
     name rfingers
     direction -1 -4.48914e-011 8.00621e-027   
     length 0.48353   
     axis -5.0975e-015 -90 -90   XYZ
    dof rx
    limits (0.0 90.0)
  end
  begin
     id 30
     name rthumb
     direction -0.707107 -6.34992e-011 0.707107   
     length 0.694255   
     axis -90 -45 4.48553e-014   XYZ
    dof rx rz
    limits (-45.0 45.0)
           (-45.0 45.0)
  end
:hierarchy
  begin
    root lhipjoint rhipjoint lowerback
    lhipjoint lfemur
    lfemur ltibia
    ltibia lfoot
    lfoot ltoes
    rhipjoint rfemur
    rfemur rtibia
    rtibia rfoot
    rfoot rtoes
    lowerback upperback
    upperback thorax
    thorax lowerneck lclavicle rclavicle
    lowerneck upperneck
    upperneck head
    lclavicle lhumerus
    lhumerus lradius
    lradius lwrist
    lwrist lhand lthumb
    lhand lfingers
    rclavicle rhumerus
    rhumerus rradius
    rradius rwrist
    rwrist rhand rthumb
    rhand rfingers
  end

#!OML:ASF E:\CV Data\Top Level 1\Subject 1\Session 1\player.ASF
:FULLY-SPECIFIED
:DEGREES
181
root 2.90076 17.7542 -24.578 7.38186 5.81869 -4.69918
lowerback 6.14787 2.49257 0.709887
upperback 0.801418 3.35943 -0.171553
thorax -2.56472 1.6649 -0.849655
lowerneck -16.5977 -5.69135 -10.4486
upperneck 36.5822 -6.53409 4.45254
head 16.4845 -3.51512 2.56225
rclavicle 6.85807e-015 1.59028e-014
rhumerus -19.9496 8.35922 -94.6567
rradius 35.8501
rwrist 3.1594
rhand 6.14285 -3.34369
rfingers 7.12502
rthumb 31.4594 -30.6566
lclavicle 6.85807e-015 1.59028e-014
lhumerus -17.681 -7.28979 87.5108
lradius 51.496
lwrist 2.75211
lhand -14.1162 9.11735
lfingers 7.12502
lthumb 12.017 38.7524
rfemur -15.9126 -5.7921 20.177
rtibia 29.9136
rfoot -17.6886 -17.2574
rtoes 3.47561
lfemur -18.0599 3.56965 -17.9728
ltibia 28.1787
lfoot -13.7221 -0.476478
ltoes 4.23714
182
root 2.90027 17.7531 -24.5741 7.37015 6.01141 -4.656
lowerback 6.18653 2.36273 0.543396
upperback 0.787613 3.17434 -0.222679
thorax -2.61 1.57382 -0.796646
lowerneck -16.6097 -5.52806 -10.3502
upperneck 36.689 -6.32995 4.47302
head 16.515 -3.41662 2.59698
rclavicle 2.24627e-014 -7.55382e-015
rhumerus -20.5071 8.44094 -94.802
rradius 36.0331
rwrist 2.78484
rhand 3.60052 -1.89468
rfingers 7.12502
rthumb 29.0342 -29.6525
lclavicle 2.24627e-014 -7.55382e-015
lhumerus -17.5151 -6.72826 87.1657
lradius 51.4838
lwrist 2.83252
lhand -14.1123 9.18986
lfingers 7.12502
lthumb 12.0208 38.8246
rfemur -15.9031 -5.81002 20.1436
rtibia 30.0087
rfoot -17.77 -17.4112
rtoes 3.55333
lfemur -18.0474 3.49694 -18.0076
ltibia 28.1577
lfoot -13.7341 -0.601337
ltoes 4.30693
183
root 2.89941 17.7514 -24.5703 7.35347 6.15095 -4.60236
lowerback 6.21133 2.24443 0.353118
upperback 0.785395 3.00276 -0.272219
thorax -2.63598 1.48993 -0.728522
lowerneck -16.6306 -5.36517 -10.2464
upperneck 36.7895 -6.12714 4.49282
head 16.5445 -3.3179 2.62988
rclavicle -3.77691e-015 1.90833e-014
rhumerus -21.0094 8.40367 -94.8881
rradius 36.1862
rwrist 2.4263
rhand 1.36238 -0.559231
rfingers 7.12502
rthumb 26.8946 -28.6659
lclavicle -3.77691e-015 1.90833e-014
lhumerus -17.342 -6.09275 86.7809
lradius 51.4838
lwrist 2.96321
lhand -13.991 9.24291
lfingers 7.12502
lthumb 12.1377 38.8708
rfemur -15.9012 -5.77724 20.0949
rtibia 30.1217
rfoot -17.8489 -17.5633
rtoes 3.61711
lfemur -18.0213 3.43513 -18.056
ltibia 28.1342
lfoot -13.7425 -0.682457
ltoes 4.28283
184
root 2.89846 17.7494 -24.5667 7.3328 6.24059 -4.5509
lowerback 6.22482 2.13987 0.161498
upperback 0.787279 2.84925 -0.321859
thorax -2.65045 1.41516 -0.660397
lowerneck -16.6413 -5.20402 -10.1381
upperneck 36.8802 -5.93189 4.51824
head 16.5675 -3.22097 2.66294
rclavicle -2.09718e-014 -1.35174e-014
rhumerus -21.4742 8.24831 -94.9194
rradius 36.3237
rwrist 2.05598
rhand -0.603873 0.640526
rfingers 7.12502
rthumb 25.0118 -27.7421
lclavicle -2.09718e-014 -1.35174e-014
lhumerus -17.1665 -5.40249 86.3537
lradius 51.4901
lwrist 3.08949
lhand -13.7539 9.25216
lfingers 7.12502
lthumb 12.3664 38.8664
rfemur -15.9061 -5.70026 20.0454
rtibia 30.2431
rfoot -17.9148 -17.7143
rtoes 3.65053
lfemur -17.9858 3.37909 -18.1033
ltibia 28.1139
lfoot -13.7512 -0.719095
ltoes 4.19576
185
root 2.8976 17.7473 -24.5628 7.30362 6.28481 -4.50493
lowerback 6.22914 2.04707 -0.0226572
upperback 0.79665 2.71182 -0.372764
thorax -2.65079 1.3484 -0.598353
lowerneck -16.657 -5.04696 -10.0301
upperneck 36.9684 -5.74702 4.55508
head 16.5922 -3.12673 2.69892
rclavicle 5.08889e-014 8.74653e-015
rhumerus -21.9017 7.98784 -94.9006
rradius 36.4508
rwrist 1.68491
rhand -2.34169 1.69338
rfingers 7.12502
rthumb 23.3456 -26.9109
lclavicle 5.08889e-014 8.74653e-015
lhumerus -16.9713 -4.6656 85.8798
lradius 51.4895
lwrist 3.16548
lhand -13.3712 9.15274
lfingers 7.12502
lthumb 12.7353 38.7444
rfemur -15.9074 -5.59646 19.9982
rtibia 30.3633
rfoot -17.9664 -17.8526
rtoes 3.66123
lfemur -17.9358 3.32574 -18.1447
ltibia 28.1017
lfoot -13.7635 -0.724304
ltoes 4.12065
186
root 2.89711 17.7454 -24.5589 7.27106 6.28909 -4.47328
lowerback 6.22967 1.96597 -0.181793
upperback 0.807616 2.59167 -0.424083
thorax -2.6455 1.29 -0.55189
lowerneck -16.6748 -4.89746 -9.93052
upperneck 37.0513 -5.5771 4.60845
head 16.6175 -3.03753 2.74069
rclavicle 3.26007e-014 4.77083e-015
rhumerus -22.2996 7.64202 -94.8308
rradius 36.5806
rwrist 1.33178
rhand -3.84295 2.58736
rfingers 7.12502
rthumb 21.9048 -26.1926
lclavicle 3.26007e-014 4.77083e-015
lhumerus -16.7524 -3.89579 85.3613
lradius 51.4701
lwrist 3.15122
lhand -12.8787 8.89451
lfingers 7.12502
lthumb 13.2101 38.456
rfemur -15.9093 -5.47144 19.9644
rtibia 30.4736
rfoot -17.9956 -17.981
rtoes 3.63825
lfemur -17.8803 3.27738 -18.1708
ltibia 28.1001
lfoot -13.7789 -0.703325
ltoes 4.08011
